<svg width="82" height="19" viewBox="0 0 82 19" fill="none" xmlns="http://www.w3.org/2000/svg">
<rect y="13" width="16" height="2" rx="1" fill="white"/>
<rect y="6" width="16" height="2" rx="1" fill="white"/>
<path d="M32.4062 15H30L26.377 9.93457V15H24.2578V5.00586H26.377V9.8457L29.959 5.00586H32.2148L28.5713 9.80469L32.4062 15ZM38.3535 15L37.9502 13.9609H37.8955C37.5446 14.403 37.1823 14.7106 36.8086 14.8838C36.4395 15.0524 35.9564 15.1367 35.3594 15.1367C34.6257 15.1367 34.0469 14.9271 33.623 14.5078C33.2038 14.0885 32.9941 13.4915 32.9941 12.7168C32.9941 11.9056 33.2767 11.3086 33.8418 10.9258C34.4115 10.5384 35.2682 10.3242 36.4121 10.2832L37.7383 10.2422V9.90723C37.7383 9.13249 37.3418 8.74512 36.5488 8.74512C35.9382 8.74512 35.2204 8.92969 34.3955 9.29883L33.7051 7.89062C34.5846 7.43034 35.5599 7.2002 36.6309 7.2002C37.6562 7.2002 38.4424 7.4235 38.9893 7.87012C39.5361 8.31673 39.8096 8.99577 39.8096 9.90723V15H38.3535ZM37.7383 11.459L36.9316 11.4863C36.3255 11.5046 35.8743 11.6139 35.5781 11.8145C35.2819 12.015 35.1338 12.3203 35.1338 12.7305C35.1338 13.3184 35.471 13.6123 36.1455 13.6123C36.6286 13.6123 37.0137 13.4733 37.3008 13.1953C37.5924 12.9173 37.7383 12.5482 37.7383 12.0879V11.459ZM48.2861 7.35742V8.92285H45.7842V15H43.6992V8.92285H41.1904V7.35742H48.2861ZM54.5684 15L54.165 13.9609H54.1104C53.7594 14.403 53.3971 14.7106 53.0234 14.8838C52.6543 15.0524 52.1712 15.1367 51.5742 15.1367C50.8405 15.1367 50.2617 14.9271 49.8379 14.5078C49.4186 14.0885 49.209 13.4915 49.209 12.7168C49.209 11.9056 49.4915 11.3086 50.0566 10.9258C50.6263 10.5384 51.4831 10.3242 52.627 10.2832L53.9531 10.2422V9.90723C53.9531 9.13249 53.5566 8.74512 52.7637 8.74512C52.153 8.74512 51.4352 8.92969 50.6104 9.29883L49.9199 7.89062C50.7995 7.43034 51.7747 7.2002 52.8457 7.2002C53.8711 7.2002 54.6572 7.4235 55.2041 7.87012C55.751 8.31673 56.0244 8.99577 56.0244 9.90723V15H54.5684ZM53.9531 11.459L53.1465 11.4863C52.5404 11.5046 52.0892 11.6139 51.793 11.8145C51.4967 12.015 51.3486 12.3203 51.3486 12.7305C51.3486 13.3184 51.6859 13.6123 52.3604 13.6123C52.8434 13.6123 53.2285 13.4733 53.5156 13.1953C53.8073 12.9173 53.9531 12.5482 53.9531 12.0879V11.459ZM65.0205 15H62.9355V8.92285H61.0146C60.8688 10.6318 60.6911 11.9079 60.4814 12.751C60.2718 13.5895 59.9915 14.1979 59.6406 14.5762C59.2943 14.9499 58.8385 15.1367 58.2734 15.1367C57.7904 15.1367 57.3939 15.0638 57.084 14.918V13.25C57.3073 13.3411 57.5306 13.3867 57.7539 13.3867C58.0137 13.3867 58.2301 13.1999 58.4033 12.8262C58.5811 12.4525 58.7383 11.8304 58.875 10.96C59.0163 10.085 59.137 8.88411 59.2373 7.35742H65.0205V15ZM68.876 11.165C68.876 11.9215 68.999 12.4935 69.2451 12.8809C69.4958 13.2682 69.9014 13.4619 70.4619 13.4619C71.0179 13.4619 71.4167 13.2705 71.6582 12.8877C71.9043 12.5003 72.0273 11.9261 72.0273 11.165C72.0273 10.4085 71.9043 9.84115 71.6582 9.46289C71.4121 9.08464 71.0088 8.89551 70.4482 8.89551C69.8923 8.89551 69.4912 9.08464 69.2451 9.46289C68.999 9.83659 68.876 10.404 68.876 11.165ZM74.1602 11.165C74.1602 12.4092 73.832 13.3822 73.1758 14.084C72.5195 14.7858 71.6058 15.1367 70.4346 15.1367C69.7008 15.1367 69.0537 14.9772 68.4932 14.6582C67.9326 14.3346 67.502 13.8721 67.2012 13.2705C66.9004 12.6689 66.75 11.9671 66.75 11.165C66.75 9.91634 67.0758 8.94564 67.7275 8.25293C68.3792 7.56022 69.2952 7.21387 70.4756 7.21387C71.2093 7.21387 71.8564 7.37337 72.417 7.69238C72.9775 8.01139 73.4082 8.4694 73.709 9.06641C74.0098 9.66341 74.1602 10.363 74.1602 11.165ZM81.1602 7.35742V8.92285H77.9678V15H75.8828V7.35742H81.1602Z" fill="white"/>
</svg>
